<svg id="Layer_1" data-name="Layer 1" xmlns="http://www.w3.org/2000/svg" viewBox="0 0 1366 768"><defs><style>.cls-1,.cls-3{opacity:0.08;}.cls-2,.cls-3{fill:#5858f7;}</style></defs><g class="cls-1"><path class="cls-2" d="M353.52,314.19,329.88,57.13l-210.8,149Zm-27.65-39.12L164.19,200.54,309.56,97.79Z"/></g><g class="cls-1"><path class="cls-2" d="M173.46,101.61,51.39,11.41,34.31,162.23Zm-28-3.17-96,41.81,11.77-104Z"/></g><g class="cls-1"><path class="cls-2" d="M1242.26,674,1121.74,523.48,1051.67,703.1Zm-33.33-13-131.44,20.08,48.32-123.87Z"/></g><g class="cls-1"><path class="cls-2" d="M720.26,547,599.74,396.48,529.67,576.1Zm-33.33-13L555.49,554.05l48.32-123.87Z"/></g><circle class="cls-3" cx="198" cy="592" r="128"/><circle class="cls-3" cx="917" cy="479" r="128"/><path class="cls-3" d="M757,26A160,160,0,1,0,917,186,160,160,0,0,0,757,26Zm0,292A132,132,0,1,1,889,186,132,132,0,0,1,757,318Z"/><path class="cls-3" d="M1188.5,133a83.5,83.5,0,1,0,83.5,83.5A83.49,83.49,0,0,0,1188.5,133Zm0,149.5a66,66,0,1,1,66-66A66,66,0,0,1,1188.5,282.5Z"/></svg>