<svg xmlns="http://www.w3.org/2000/svg" viewBox="0 0 452.96 508"><defs><style>.cls-1{fill:#5858f7;}</style></defs><g id="Layer_2" data-name="Layer 2"><g id="Layer_1-2" data-name="Layer 1"><path class="cls-1" d="M0,508c.53-13.91,3.32-27.44,6.7-40.89,1.5-6,2.76-12,4-18,1.55-7.42,5.43-13.65,9.89-19.57,3.53-4.69,7-9.42,10.89-13.84,2-2.29,4.74-3.91,7.12-5.87,2.61-2.15,5.25-4.27,7.78-6.53a54.92,54.92,0,0,1,15.37-10.06c6.76-2.84,12.9-7.09,19.49-10.37,8.19-4.08,16.45-8,24.87-11.58a86.58,86.58,0,0,0,19.95-11.17,5.8,5.8,0,0,0,1.55-3.31,107.91,107.91,0,0,1,2.82-12.85,33.35,33.35,0,0,1,.79,4.73c.22,7.86,3.89,14.21,8.57,20.17a24.94,24.94,0,0,1,2.16,3.89c1,1.92,2,3.85,2.92,5.78.84,1.68,1.58,3.41,2.53,5a3.29,3.29,0,0,0,1.88,1.51c.5.08,1.41-.65,1.73-1.24,2-3.7,2.65-3.78,6-.82a18.67,18.67,0,0,0,3.47,2.23,61.78,61.78,0,0,1,8.68,6.42c2,1.59,5.47,2.91,8.46.21a18.42,18.42,0,0,1,9.58-4.36,2.21,2.21,0,0,0,.83-.32q12.6-8.32,25.17-16.67c3.8-2.52,7.93-4.68,11.3-7.69,7.82-7,16.28-13.66,22.56-21.92,5.09-6.7,9.33-14.76,8.54-24.22-.43-5.17.18-10.43.82-15.69,1.78,2.07,4.27,3.63,2.59,7-.31.62-1.92,3.55,1.33,3.76l.13.13-.17-.1c-.1-.65-.2-1.31-.34-2.16,2.38.11,2.61,4.81,5.86,2.31l10,17.84c2.72.34,5.46,3.63,6,6.76a23.42,23.42,0,0,0,3,7c.34.62,1.78.64,2.74.89a9.08,9.08,0,0,1,1.4.21c3.39,1.51,3.51,1.38,4.31-2.46,2.32-11.06,1.59-22.18.91-33.33-.83-13.42-1.49-26.86-2.21-40.29,0-.84,0-1.69,0-2.53l.94-.12a20.85,20.85,0,0,1,.51,2.57q1.65,23.55,3.26,47.11c.18,2.63.18,5.29.37,7.93.25,3.44,2.14,4.62,5.23,3.15a16.55,16.55,0,0,1,9.58-1.35c3.12.39,6.34-.14,9.5,0a38.66,38.66,0,0,1,8.74,1.18,7.39,7.39,0,0,0,6-.3c8.23-4.31,13.07-3.06,18.9,4.31,4.69,5.95,5.81,12.91,6.59,20.12a51,51,0,0,1-1.95,20.35c-.5,1.67-.21,2.3,1.35,3.2,3.49,2,6.62,4.66,10.12,6.67a33.55,33.55,0,0,0,8.41,3.47c3.14.78,5.64,1.89,7.6,4.66,3,4.22,7.19,6.78,12.14,8.62,6.41,2.39,12.44,5.77,18.74,8.48,2.9,1.25,5.27,3.16,7.86,4.83,3.06,2,4.61,1,5.36-2.54.19-.87.3-1.76.45-2.64,1.7,2.36,1.71,4.75.65,7.45a3.59,3.59,0,0,0,.89,3.32c6.35,4.21,12.86,8.19,19.32,12.22.07,0,.3-.17.46-.26v3l-7.39.55-.11-.56,6.1-1.53c-3.79-1.95-6.76-1.39-7.59.95l0,0-7.62-4a23.35,23.35,0,0,1,.64-3.09c.48-1.44,2.3-.92,2.87.77l2.91-.29,1.74,2.34.7-.81-2.49-1.47c-2.21-1.31-4.35-2.75-6.66-3.85-.93-.44-2.23,0-3.33-.21a30.82,30.82,0,0,1-3.58-1l-.68.83c1.3,2.26,2.59,4.53,3.88,6.79l-.51.55-2.8-1.94,0,0v5.46c-2.29-.27-3.66-2.63-5.46-.62l-1.21-1.16-.06-.1.06.07,1.26,1.15c.59,1.22,1.18,2.44,1.76,3.66a.36.36,0,0,1-.49-.2c-.2,0-.39,0-.1,0l.14,0c-.05,1.76-3,4.1,1,5l0,0,3,.61,2.62,4.71-1.8,2.43,3.75,2.3-.79.24c.74,2.28,1.46,4.56,2.22,6.82,1.05,3.08,2.13,6.14,3.19,9.21.49,1.41,1,2.83,1.45,4.24.35,1.07-.44,2.55,0,3.5,1.1,2.55,2.8,4.83,4.06,7.31.26.5-.22,1.52-.61,2.15s-1.56,1.11-1.49,1.24a14.83,14.83,0,0,0,1.63,2.36l.38.37-.34,4.5.19.2,2.76,9.25,3.86,5-2.5,2.93H421.25c1.7-1.26-.09-2.39-.1-3.58a73.39,73.39,0,0,1,.24-8.78A50.22,50.22,0,0,1,423,489c-1.43-2-.34-6.93,2-8.11-.32-.83-1-1.69-.86-2.38.83-4.17,1.86-8.3,2.8-12.45.2-.86.36-1.74.48-2.63.4-2.88.77-5.77,1.15-8.66l-.79-.11-.21,2.89-.62.4c-1.22,3-2.36,6.1-3.71,9.07-.24.53-1.34.67-2,1-1.49-6.15,1.27-11.14,4.58-15.37-2.4-1.53-4.77-2.4-6.14-4.08s-1.56-4.06-2.07-5.53c-1.57,2.75-3.48,6-5.35,9.35-.23.41-.18,1-.38,1.41-1.09,2.48-2.29,4.92-3.32,7.42a21.24,21.24,0,0,0-.77,3.33c1.92-1.74,3.8-3.2,4.48-5.1,1-2.77,1.75-3.44,3.89-.14a6.78,6.78,0,0,0-.22-1.57c-.78-1.25-1.59-2.47-2.39-3.7,1-.64,2.08-1.28,3.11-1.93.16-.11.27-.43.4-.42,2,.11,4,.26,6,.4-.17,1.16-.35,2.32-.5,3.36l-3.8-1.61-.58.86,3.42,3.74-3.29.7v4.67a7,7,0,0,1-1.5-.84c-.76-.71-1.41-1.53-2.1-2.3l-.64.37c1.71,2.58,2.43,5.13.56,7.89a22.32,22.32,0,0,0-1.69,3.86l-4.29.47.88,1.51L407.85,480l.95.53a18.05,18.05,0,0,0,1.94-2.7c.82-1.67,1.44-3.44,2.14-5.17l1.54,1.92,2-1.88.12.08-.13-.1.48-4.41,1,0,1.79,2.16c-.09-2.71-3.7-4.09-1.46-6.77,1.39.28,2.89.41,2,2.58-.14.35.64,1.08,1,1.64-.17,2.33.08,4.79-.61,6.95s-2.32,3.9-3.78,6.22h-1.64V484h3.26c-1.45,2.27-3.12,4.08-3.82,6.22s-.35,4.47-.47,6.72l-.83.18,2.38,1.81,1.81-2.62.81.1c.12,1.47.89,3.41.23,4.33-1.38,1.92-.43,3.2.23,4.77a15.77,15.77,0,0,1,.63,2.5H368.59c-.53-2.66.23-5.36-.46-8.07-.47-1.83-.11-3.88,0-5.83a10.5,10.5,0,0,1,.7-2.39l-2.28-1.09c.49-1.86,1.35-3.64,1.34-5.42,0-4.49-.4-9-.63-13.45,0-.29,0-.73.12-.86,2.39-1.9.69-4.79,1.68-7a1.87,1.87,0,0,0-.53-1.79,2.13,2.13,0,0,0-1.85.36c-2.43,1.77-4.05,8.41-2.92,11.27.37,1,1.08,1.71-.36,3s-2,3.62-2,5.5c0,4.57.76,9.13-.93,13.6a3.76,3.76,0,0,0,.22,2.69,41.84,41.84,0,0,0,2.74,4.23c-2.8,1-3.42,2.53-1.61,4.66l-1.67.64Zm447-80.87,0,0-.47-.92-.38.31C446.45,426.75,446.74,426.93,447,427.13ZM257.32,359v1.88l-3.3-2.39c-1.33.15-1.68,3.9-4.49,2.09-.25.53-.46,1.08-.75,1.58-.46.77-1,1.5-1.47,2.26l-.84-.62q.47-3,.92-5.94l-.88-.26c-1.46,2.34-3,4.62-4.33,7.05-.65,1.19-.51,2.87-1.29,3.91a36.43,36.43,0,0,1-4.66,4.72c-2.95,2.71-6,5.34-8.95,8.05a3.46,3.46,0,0,0-1,1.46c-.76,2.35-1.25,4.88-4.71,4.3-.26,0-.63.68-1,1-2.83,2.87-5.33,6.24-8.61,8.45-2.68,1.81-4.23,3.7-4.83,6.73-.13.67-1,1.31-1.72,1.72-1.31.77-2.73,1.38-4.23,2.12,2.71,3.79,5.15,7,7.4,10.38,2.92,4.36,4.15,10.15,9.66,11.46.17,1.45.3,2.59.43,3.74,2.09-2.36,1.65-4.31-.25-6l-.06-.05-.21-3.31.46-.4,1.33,1.41a14.14,14.14,0,0,0,9.22-8.9c-1.28-.41-2.42-.71-3.51-1.13-3.3-1.26-4-3-2.24-6.1a27.54,27.54,0,0,1,2.3-2.59,4.89,4.89,0,0,0,1.1-2.25,12.27,12.27,0,0,0-.23-3.67c-.88-4.31,3.11-5.64,4.68-8.81l2.12,2.51,6.49-4.17c.76,1.08,1.49,2.07,2.18,3.09s1.09,2.53,1.76,2.6c3,.35,3.76,2.56,4.6,4.86l.82.1c1-2.64,2-5.28,3-7.89-4.1-2.12-4.32-2.68-2.49-5.67l-2-1.25a13.15,13.15,0,0,1-1.22,2.13,1.36,1.36,0,0,1-1.28.24,1.35,1.35,0,0,1-.58-1.16c.93-3.25,2-6.47,3.22-10.58l1.15,4.14,4.57-3.53,1.31,2,2.86-2.54.07,0c0,.66.28,1.55,0,1.94-2.13,2.56.36,4.13.95,6.23l3-2.38a3.24,3.24,0,0,1,.38.36v3.35l.85.7,5.47-3.33c-2.54-3.49-1.86-10.78.79-12.39l-1.49-3,5.15,1.46c-1.85-2-3.14-3.67-4.64-5.08-1.95-1.84-4.08-3.49-6.11-5.25-.34-.29-.82-.79-.76-1.1a2.06,2.06,0,0,1,.94-1.26,14.15,14.15,0,0,1,2.57-.78l-3.22-4.21c0,1.84.26,2.86-.06,3.65a52.19,52.19,0,0,1-2.56,4.92l-1.85-.63c-.12-.91-.23-1.82-.35-2.73l-1.07.38Zm140,70.65,1.89-5.72-.71-.28-2.43,2.66c.47,1.24.86,2.29,1.25,3.35l-.74.67.21.19Zm.59,24.55c1.7-2-.55-3.24-1.31-4.89l-.45,5.35,1.78-.47Zm-1.8-47.22-.05-.12,0,.09,7.87,6.22.91-.22c-.22-1.22-.1-2.7-.76-3.59-.52-.71-2-.72-3.07-1-.42-.12-.89-.11-1.31-.23C398.52,407.72,397.31,407.32,396.1,406.94ZM258.5,320.13l-.16-.12.19.08v3.24c1.54,1,3,1.55,3.64,2.58s.58,2.77.8,4.09l3.2-1.93c-1.57-1.95-3.08-4-4.76-5.81A17.43,17.43,0,0,0,258.5,320.13Zm48.35,31.42c.32-.48.52-.64.53-.81a29.77,29.77,0,0,0,.07-3,26.42,26.42,0,0,1,4.68-17,13.39,13.39,0,0,0,1.18-3.16c-1.18-.29-2.4-1-3.52-.82-10.57,1.4-14.54,9.23-14.15,18.75a2.17,2.17,0,0,0,1,1.58C300,348.69,303.48,350.12,306.85,351.55Zm101.42,85.13c1.85.27,2.36,1.24,2.09,3.44-.23,1.87.78,3.89,1.24,5.84,1.19-6.55,2.44-13-1.38-19.16,4.18-.78,1.18-3.06,1.8-4.44l2.45-3.4-4.53-1.24c-3.44,4.29-1.24,8.94-1.64,13.34C408.15,432.78,408.27,434.52,408.27,436.68Zm-215.8-25.36L179,423.17a54.9,54.9,0,0,0,5.57-.31,2.76,2.76,0,0,0,1.8-1.41c.73-1.74,1.06-1.94,2.71-1.07a6.42,6.42,0,0,0,1.61.38C187.48,419,187.75,417.74,192.47,411.32ZM158.33,468.4l-2.53,1c.77.48,2.08.93,2.07,1.34-.07,1.84-1.1,3-3.35,3.14l.3-2-.84-.12c-.16,1.31-.33,2.61-.55,4.27l3.36-.8c-.12,1.32-.21,2.4-.31,3.49.71-1.58.26-4,1.14-4.69C160,472.23,159.42,470.57,158.33,468.4Zm247.39-1.74-.62,0L397.38,479a69.16,69.16,0,0,0,7.8-9.66C405.66,468.65,405.55,467.56,405.72,466.66Zm-126-100.77c.78-2.71,1.69-5.87,2.79-9.71-2,1.72-4.77,1.8-3.8,4.87A45.33,45.33,0,0,1,279.76,365.89ZM270.2,354.6l.59,0c.15-2.1.31-4.2.48-6.4l-1.88.94C269.68,351.07,269.94,352.84,270.2,354.6Zm153,65.88,4.24,2.89v-2.68Zm-29-8.33,1.31,5.25C397.81,416.63,397.81,416.63,394.16,412.15Zm-218.4,28.44-.55.53,3.84,2.16.56-2ZM389,397.45l-1.62,1.86,3.09,1,.27-.55ZM258.16,351.56l-.62-.13-.07,1.54.48,0Zm153.22,95.73c-.29.15-.58.22-.59.32a2.46,2.46,0,0,0,.1.75c.17-.07.44-.11.47-.22A3.34,3.34,0,0,0,411.38,447.29Zm-19.54-50-.13-.21,0,.35ZM178,424.24s.13-.07.15-.12,0-.15,0-.22l-.28.19Z"/><path class="cls-1" d="M235.94,293.94l.59-1.88,6.34,3.55c.32,1.15.85,3.08,1.33,4.83l3.72-1.89c2.35,3.51,2,5.23-.94,8a22.83,22.83,0,0,0-2.86,4.05v0c-.66.29-1.57.38-1.94.88-1.63,2.15-3.86,2.48-6.38,2.15.25,4.28-3.45,3.69-5.62,4.79-1,.51-2.43.1-2.19,2a1.21,1.21,0,0,1-.58,1c-3.77,1.6-6.86,5.18-11.59,4-.19-.05-.42-.18-.57-.12-3,1.16-6.65.79-8.43,2.88-1.62.11-3.51,0-3.57.28-.76,3.8-4,2.5-6.21,3.13-2.87.81-5.8,1.39-8.7,2.07-.19,0-.42.25-.54.2-2.95-1.54-5.7,1.22-8.6.37l0,.14c.1,0,.23-.07.29,0,.31.19.6.42.9.63-.45.32-.89.92-1.33.91-2,0-4-.56-5.86-.28-1.12.16-2.18,1.38-3.1,2.3-1.92,1.94-2,5.13-5.61,6.08-3.79,1-4.71,4.44-2.94,7.51-4,.79-4,.79-3.58,2.77l-3.14-.94v2.48c-4.87-.14-8.5-3.37-7.79-8.29.21-1.46-1-3.17-1.68-4.73-1.32-3.13-2.93-6.15-4-9.36a36.18,36.18,0,0,0-9.12-14.84c-.58-.55-1.71-.54-3.13-1,.73,7.43,1.41,14.46,2.1,21.5l-.48.06c-1.21-6.84-2.26-13.71-3.71-20.49-.6-2.83-1.27-6.5-3.25-8-4.67-3.56-5.77-9.84-11.34-12.84-3.09-1.66-5-5.87-6.39-9.58-.49-1.28-1.17-2.49-1.78-3.73-.8-1.61-1.94-3.14-2.38-4.84-1.44-5.59-2.64-11.24-3.91-16.88-.78-3.42-1.51-6.85-2.28-10.28a2.22,2.22,0,0,0-.37-1.1c-2.88-2.7-1.6-6-1.26-9.12s0-5.86-1.93-8.43a16.87,16.87,0,0,1-3-14.69c.61-2.59,2-5,3-7.48l-.8-.38-2.43,5-.54-.14c-.85-6.26-2.06-12.5-2.41-18.79a8.33,8.33,0,0,1,4.26-7.73,3.56,3.56,0,0,0,1.52-2.74c-.3-3.4-1-6.76-1.44-10.15a43.6,43.6,0,0,1-.48-7c.24-6.51.73-13,1-19.53.29-5.91.44-11.82.73-17.73a28.2,28.2,0,0,1,.79-3.8c1.18-6,2.6-11.94,5.79-17.33.81-1.38.52-3.41.72-5.14.06-.57.08-1.14.12-1.7.22-2.81,2.59-4.26,4-6.24,3.19-4.35,6.64-8.5,9.9-12.8s6.68-8.82,9.85-13.34,6-8.85,8.85-13.34a6.12,6.12,0,0,1,5.91-3.19c3.5.19,4.81-.83,5.82-4,.17-.52.76-.89,1-1.4.6-1.34,1.11-2.71,1.65-4.07l0,0a10.22,10.22,0,0,0,2.87-.56c2-1.06,3.78-2.73,5.88-3.42,1.92-.63,4.21,0,6.22-.48a27.22,27.22,0,0,0,5.5-2.34c2.91-1.37,5.79-2.77,9.11-2.77l1,.07-.27-1c.43-.74.85-1.47,1.18-2l8.32,2,.76-.61c3.48.4,7.08-1,10.5.62.5.24,1.36.49,1.66.25,3.66-2.92,7-.65,10.63.21,4.37,1,6.91,4.51,10.77,6.15,1.49-1.93,5.43-.67,7.56,3,3.43-2.38,5.1,2.23,8.6,2.18,3,0,6.37,2.7,9.1,4.83s4.75,5,7.09,7.5c.89-.61,1.68-2.32,2.45.29.51,1.72,1.83,3.24,2.95,4.74q3.54,4.77,7.27,9.41c1.09,1.36,2.65,2.41,3.48,3.89,2.87,5.13,7.62,9,9.32,15,.7,2.44,2.31,4.63,3.74,7.38a18.42,18.42,0,0,0,.66-3.92c-.6-10.2-1.51-20.4-1.84-30.61-.13-4-3.06-5.84-4.93-8.49-1.63-2.31-4-4.09-5.67-6.38-3.71-5.14-7.08-10.52-10.81-15.64a12.25,12.25,0,0,0-4.47-3.63c-3.66-1.75-7.5-3.12-12-5,2.67-3.9,4.78-8.19,8-11.36,5.19-5.15,11.12-9.56,16.73-14.28.45-.38.88-.77,1.32-1.16H290.8a90.06,90.06,0,0,1,.36,10c-.17,2.33-.08,3.31,2.68,3.51,7.49.52,14.73,7.64,15.24,14.82.09,1.38-.44,3.6-1.36,4.06a5.57,5.57,0,0,1-4.6-.48c-2.18-1.34-4-3.32-6.13-5.21l-.5,4.37A37.35,37.35,0,0,0,301,33.72c2.82,1.2,2.82,3.53,2.72,6-.2,5-2.58,9.26-5,13.47-1.72,3-1.44,3.76,2,4.37a32.86,32.86,0,0,1,16.2,7.19c3.08,2.65,5.84,5.68,8.83,8.45a12.92,12.92,0,0,0,2.64,1.53,10.9,10.9,0,0,0,.65-3c-.54-7-1.11-13.91-1.84-20.84-.43-4.09-1.17-8.15-1.73-12-6.59.9-11.69-1.38-16.57-4.61a4.82,4.82,0,0,1,2.74,0c2.8.72,5.62,1.36,8.36,2.28,3,1,4.07-.24,4.66-3,2-9.65,4.24-19.25,6.33-28.88.32-1.5.37-3.06.55-4.59h3.59c-2,9.05-4,18.09-5.93,27.15-.51,2.42-1.2,4.94-1,7.36.81,11.88,1.84,23.75,2.92,35.61.34,3.73.49,7.65,1.8,11.08,2.14,5.56,5,10.82,3.19,17.06a6.4,6.4,0,0,0-.09.88,23.76,23.76,0,0,1-.78,4.42c-.93,2.54-.07,3.79,2.61,4.42,4.8,1.12,9.52,2.57,14.27,3.89,1.19.33,2.38.7,3.51,1,.54-2.59.69-4.93,1.54-7,1.16-2.8,1-5.17-1-7.39-.91-1-2-1.89-2.94-2.83-.56-.52-1.52-1-1.62-1.55-.54-3.06-1-6.24,1.34-8.82,1.32-1.45,1.16-2.72.39-4.32-3.25-6.74-1.33-12.43,5.13-16.17a4.58,4.58,0,0,0,2-3.11c.46-7.16.66-14.34,1-21.51.11-2.64.24-5.27.37-8h-3c-1.09-6.1.38-11.84,1.64-17.62,1-4.84,1.91-9.72,2.86-14.58h61c1.15,14.45,5.37,28.92-1.15,43.32l1.58.27,6.25-17,.57-.13c.46,2.14.93,4.28,1.57,7.25.51-1.43.75-1.95.88-2.5,2-8.31,8.06-12.86,15.3-16.19,1-.48,2.47-.07,3.72-.07V41.88c-1.89.76-3.75,2-5.68,2.17-5.83.37-8.38,3.82-9.35,9.43l-2.74-1.22a5.1,5.1,0,0,1,.39-1.1c3.44-5,3.2-7.34-1.5-11.29a3,3,0,0,0-2.71.06c-1.48,1-2.64,2.4-4.09,3.44s-2.94,1.56-4.29,2.51c-.56.4-.77,1.3-1.13,2l0,0c-.22.4-.71.87-.62,1.19.44,1.63,5.76,5.19,7.57,5.07a4.87,4.87,0,0,1,4.69,1.91c.55.71,2.3,1,3.36.73a8.3,8.3,0,0,1,10.07,5.74c.64,2.06-.21,3-2.14,2.64a23.6,23.6,0,0,1-5.34-1.78c-2.25-1-4.39-2.27-6.59-3.4a2,2,0,0,0-1.12-.25c-1.86.29-4,6.23-2.72,7.94-4.59,3.57-3.7,9-4.56,13.92a58,58,0,0,0-.75,10.12,25,25,0,0,1-1.82,10.47c-.49,1.09-1.39,2.49.74,3.37.42.17.54,2.44,0,3.26-5,8-5.65,17.27-8.39,25.92-1.13,3.55-1.82,7.24-2.91,11.68,9.8-2.29,18.37-7.43,27.39-4.74-2.05,3.46-4.53,7.3-6.69,11.3-5.4,10-10.29,20.19-18.64,28.28-2.07,2-2.84,5.34-4.1,7.87,0,0-.18-.6-.4-1.18-.61-1.63-1.38-1.95-3.17-1.11-3.18,1.48-6.61,2.43-9.89,3.69-2.06.8-3,0-2.63-2,.75-3.79-1.06-5.89-4.17-7.52-3.6-1.88-5-5-4.36-9,.51-2.92,1.19-5.82,1.83-8.72a1.88,1.88,0,0,1,.68-1c6.41-4.79,11.77-11.1,19.83-13.49,2-.6,2.6-2.08,3-4.2,2.22-10.61,4.8-21.15,7.2-31.73.72-3.18,1.28-6.4,1.89-9.46a92.05,92.05,0,0,1-10.46-2.91c-1-.41-1.79-2.42-2-3.8a9.75,9.75,0,0,1,.51-4.72c1.27-3.54-.7-6.18-2.25-8.88-.3-.53-2.11-.79-2.8-.41-5.07,2.76-10,5.79-15,8.58-6.92,3.85-14.12,7-22.21,7.29-2.46.09-3.81,1-4.33,3.54-.8,3.79-2.15,7.49-2.68,11.32-.21,1.59.9,3.49,1.75,5.07,2,3.74,4.64,7.19,6.19,11.08,1.63,4.09,1.22,8.28-2.85,11.25-1.61,1.17-1.18,2.24-.11,3.75,2.85,4,5.46,8.19,8.09,12.35a3,3,0,0,1,.1,1.7c-.12,1.57-.44,3.14-.43,4.71,0,5,.36,5.2,4.72,3.16,1.54-.73,2.23-.13,2.72,1.18,2.46,6.57,4.91,13.14,5.26,20.27.27,5.34-1.33,9.79-5.7,13-3.23,2.39-6.57,3.32-10.61,1.58-4.75-2.05-9.78-3.45-14-6.72a3,3,0,0,0-2.54-.31c-3.15,1.25-6.19,2.81-9.35,4a5.7,5.7,0,0,1-3-.15c-1-.23-2.2-1.3-2.95-1-3.65,1.31-4.2-1.31-5.07-3.63-.14-.36-.09-.8-.22-1.17-.73-2.15-1.8-3.33-4.16-1.66-.6.42-1.57.3-2.37.43a6.84,6.84,0,0,1-.06-2.42c1.37-3.93,2.8-7.85,4.38-11.7.36-.88,1.42-1.46,2.09-2.24a74.82,74.82,0,0,0,4.94-5.92c1.6-2.31,2.8-4.9,4.34-7.26a2.53,2.53,0,0,1,2.06-.69c2.39.3,8.4-3.31,8.69-5.63a2.14,2.14,0,0,0-3.1-2.37,7.81,7.81,0,0,1-7.68-.53c-3.84-2.15-8.31-3.22-12.57-4.56a6.59,6.59,0,0,0-3.6.1c-1.74.48-4.21-.62-3.84-2.3.87-3.94-1.91-6.3-3.31-9.26a17.52,17.52,0,0,0-1.17-1.73c-2.87-4.53-5.36-8.92-11.39-10.7-4.79-1.41-7.66-6.36-9.52-11-2.71-6.8-5.48-13.67-2.49-21.35.91-2.35.76-5.34.36-7.92-1-6.54.47-12.75,1.87-19,.31-1.41.56-2.84.84-4.26l-.93-.4-6.12,10.14c-2.81-1.52-3.08.65-3,3,.26,5,.56,10.11,1,15.15.61,7.72,1.38,15.43,2,23.15.18,2.39.71,4.26,2.93,5.75a9.22,9.22,0,0,1,4.17,8.77,8.84,8.84,0,0,0,3.53,8.24c3.7,3.08,4.5,7.59,3.24,12.12-2,7.16-4.53,14.16-6.48,21.33-.71,2.59-.47,5.46-.58,8.2-.29,8-.54,16-.82,24a16.22,16.22,0,0,1-.28,2l-1,.37c-1-1.93-1.92-3.86-2.73-5.51-2.4,2.42-5.2,5.07-7.76,7.94a13.31,13.31,0,0,0-1.91,3.89c-1,2.38-1.91,4.8-2.86,7.2l-1-.14c-.27-4.71-.52-9.42-.84-14.12,0-.56-.63-1.08-.7-1.64a86.66,86.66,0,0,1-1-10.5,38.31,38.31,0,0,1,1.28-10.25c.87-3,2-6.15,4.62-8.4.4-.34-.07-1.79-.26-2.7a25.56,25.56,0,0,0-.86-2.65l.68-.31,1.52,1.3a2.76,2.76,0,0,0,.35-.87c0-4.91.81-9.69-.26-14.76-1.29-6-.48-12.49-1.34-18.66A74.9,74.9,0,0,0,275,118.83c-4.62-13-13.24-23.49-22.72-33.22a22.93,22.93,0,0,0-8.94-5.55c-4-1.31-8.32-1.51-12.53-2a5.29,5.29,0,0,0-2.49.89c-1.64,0-2.7.08-3.74,0s-1.85-.51-2.79-.62a36.83,36.83,0,0,0-3.79-.16c-1.18,0-2.37.07-3.55,0-1.46,0-2.93-.13-4.39-.18-1.29,0-2.77,1.62-3.92-.54-.16-.3-1.9.38-2.91.41-4.74.09-9.48.29-14.2.11-3.9-.14-7.81-1.26-11.66-1-5.92.31-11.61-1.92-17.69-.53-6.72,1.54-13.72,1.85-20.6,2.72a5.93,5.93,0,0,0-2.26.61c-8.17,4.84-15.61,10.58-20.83,18.65a152.34,152.34,0,0,0-8.77,15.5c-1,2.09-1.1,4.81-1.07,7.24,0,3.73.6,7.45.79,11.17a23.47,23.47,0,0,1-.31,4.73c-.68,4.46-.68,9.24-2.36,13.3-3.3,7.94-3.57,16.13-3.87,24.42,0,1.15-.73,2.26-1,3.41-.89,4.25-2.09,8.48-2.51,12.78q-1.42,14.44-2.15,29c-.19,3.72.39,7.48.7,11.22a5.87,5.87,0,0,0,.83,1.83c.81,1.61,2.38,3.25,2.3,4.8-.19,3.53,3.06,3.38,4.61,4.84,1.2,1.13,1.73.7,1.7,2.42a81.67,81.67,0,0,0,0,8.57c.18,2,1,3.89,1.67,6.41l1.44-3.37,1.19,1.73c.37-2.55.71-4.93,1-7.31l.91,0c1,2.3,1.86,4.65,3,6.88a14.55,14.55,0,0,0,2.68,3.66c.24.25,1.91-.24,2.07-.68.56-1.65,1.45-3.64,1-5.09-1.28-3.88.32-6.95,1.86-10.15s3.15-5.91,7.37-5.53a3.07,3.07,0,0,0,2.5-1.39c1.57-3.85,5.25-2.83,8.06-3.84,1.33-.47,3.08-1,3.69-2,1.69-2.93,3.81-3.12,6.93-1.46A37.34,37.34,0,0,1,148.9,226a5.64,5.64,0,0,1,1-2.88c.12-.21,1.47-.08,1.51.08a6.34,6.34,0,0,1,.27,2.75c-1.07,5.11.95,7.87,7,7.94,4.94,0,8.29,2.38,11.34,5.65,1.79,1.94,3.4,4,5.07,6.08,1.25,1.55,5.49,1.15,7.71-.73a32.3,32.3,0,0,0,3.63-3c1.92-2.18,4-.89,5.8-.24,2.08.74,3.9,2.19,6,3.4.25-1.83.43-3.16.6-4.49l1.12,0c.34,1.78.68,3.57,1.09,5.74.31-1.52.55-2.67.91-4.45l7.21,12.68c1.4-1.24,2.5-2.19,3.75-3.29.82,2.07,2,3.65,4.74,2.27.19,3.39,2.91,2.12,4.59,2.77,1,.36,1.85.82,2.75,1.22,0,.13.07-.23.3-.92.36,1.27.64,2.25,1.13,4l.58-2.83c.13.09.31.16.34.27.91,3.48-.32,6.67-1.38,9.87-.09.29-.8.34-1,.65-.8,1-2,2-2.17,3.15-.6,4.32-.47,4.34-3.77,6.95-2.05-1.52-4.11-3-6.09-4.56a2.06,2.06,0,0,1-.78-1.49c.39-2.7-1.32-3.29-3.4-3.83-5.24-1.37-10.23-3.78-15.93-2.94a105.45,105.45,0,0,1-11.52.95,21.82,21.82,0,0,1-6.45-.6c-4.68-1.28-9-.13-13.34,1.32-1.14.37-2.54,0-3.82-.1-2.19-.12-4.39-.18-6.56-.44-1.87-.23-3.72-.69-6-1.13a5.74,5.74,0,0,0,.41,1.56c.93,1.67,2.23,3.18,2.89,4.94,1.25,3.35,4.1,4.65,7.33,3.08a4.36,4.36,0,0,1,2.31-.51c4,.62,8,1.66,12,2a21.05,21.05,0,0,1,5.91,1.66c1.64.6,3.9-.53,5.89-.9l0-.86a35,35,0,0,0,3.56,3c.64.43,1.65.28,2.48.47,1.06.23,2.41.23,3.08.89a3.35,3.35,0,0,1,.55,4.29l0,0-2.94-.68c0-.08,0-.16-.05-.24l-.24.21.24.07-1.91-.42c-1.95,1.38-3.48,3.32-5.16,3.46-2.52.21-4.38.57-5.37,3.74-.33-1.44-.52-2.25-.7-3h-3.18l-.75,1.55-3.09-.36c1.78,1.35,3.15,4,5.07,2.28l6.16,1.92-2.26,1.73-.14.9,6.3,1.43-3.08,4.33,2.42.72c-.27,3.33-3.55,3.16-4.69,2.67-2.72-1.2-1.13-3.83-.46-6-4-.32-.95,4.07-3.65,4.71-1.7-2.41-4.57-4.37-3-8.87-1.61.71-2.65,1.48-3.75,1.57a7.82,7.82,0,0,1-2.83-.69c1.06-2.06,1.8-3.49,2.85-5.51l-5.65.81c-.87-1.93-1.84-4.11-3-6.81-1.3-.15-3.71.75-5.26-2.14-.55-1-3.34-.85-4.72-1.14l-5.55,6.7c2.95,3.26,6,7,11.33,5.27,3.38,2.76.76,6.14,1.3,9.14.37,2.11,0,4.36-.07,6.54l-.7.08.07.24.6-.36,2.34-.34c.27,2.17.52,4.21.78,6.26l.77,0v-5.83c1.69,1.54,2.78,2.52,3.88,3.51v0c-.51,2.05-2,4.17.3,6.05a3.58,3.58,0,0,0,2,.89c3,.07,3.48.36,4.4,3.61.75-1.46,1.8-2.56,1.78-3.64,0-3.37,1.8-5.71,3.88-8.26l3.18,3.35c2.79-3.34,2.79-3.34-.11-6.07h7.89a1.77,1.77,0,0,0,.14-1c-.24-2.4,0-4.37,3-4.73.61-.08,1.12-1,1.68-1.5l0,0a24.54,24.54,0,0,0-.21,3.52c0,.57.57,1.11,1.51,1.39v-2.22l.62-.6,1.59,1.6.05-.07-1.77,5,3-1.64a15.17,15.17,0,0,1-.33,2.12c-.44,1.33,1.2,5,2.09,4.57,2.54-1.18.76,1.62,2,1.6.09-.5.23-1.09.28-1.69a16.45,16.45,0,0,0,0-1.72l.74-.18c.42,1.35.85,2.71,1.28,4.06h.59c-.08-1.34-.15-2.68-.22-4l2.46-.81,1.43,3.94,6.16-6.92-.06-.1c.77-.89,1.48-1.83,2.31-2.65s1.85-1.59,3-2.54l2.21,2.06-.05-.06c1.1,2.8,2.13,5.64,3.38,8.39.21.48,1.3.57,2,.84l.12-.07-.18,0c0-3.06-.26-6.2,2.08-8.59l1.21,0,.9,7.05c1.68-.35,4-.21,3.7-3.28.09-.16.18-.32.28-.48l-.24.53c-.34-1.28-.67-2.57-.9-3.44L231,304.51l0,.07c1.25-.85,1.22-1.52-.36-1.59a10.47,10.47,0,0,0-2.7.7l.94-4.61,3,1.61,2.55-1.95c0,2.74-.86,5.67,3.14,6.05l1.25-2.62-.84.32a22.55,22.55,0,0,1-1.86-4.08,22.18,22.18,0,0,1-.22-4.48ZM132.24,274v0l3.65,4.2c1.73-.38,4-1,4,2.34.76,0,1.86.24,2.2-.15.59-.69.64-1.81,1.06-2.69s.89-2.55,1.73-2.91c3.06-1.3,1.24-2.36.11-3.63a21,21,0,0,1-1.87-2.61c-1.08-1.68-1.78-3.81-3.25-5-1.73-1.37-6.41-.09-8.16,1.83,0-1-.07-1.7-.09-2l-3.23,3.64-.94-3-1,2-3-2-.49.62.93,1.89-.68.69-3.73-3.35-1,3.75a38.18,38.18,0,0,0,2.51,3c.62.61,1.52,1.45,2.18,1.36s1.43-1.12,1.7-1.9c.56-1.58,1.25-2.56,3.15-2.4s3.82,0,5.26,0C132.92,270.16,132.58,272.1,132.24,274Zm269-198.35c-.84-4.16-1.82-7.67-2.19-11.24-.26-2.56-1.39-4.17-3.06-6-1.91-2.07-3.09-4.82-4.47-7.33a2.31,2.31,0,0,1-.1-2c2.25-3.39,0-5.9-1.59-8.49-.37-.6-1.66-1.38-1.87-1.23-2.9,2.26-4-.38-5.73-1.81a4,4,0,0,0-2.5-.57c-4.55.08-9.14.73-13.38-1.77-.25-.15-1.84,1-1.88,1.58-.45,7.65-.7,15.31-1.07,23-.11,2.2.68,2.92,3,2.78,7.58-.49,14.57,1.71,21.15,5.26C391.94,70.27,396.27,72.85,401.24,75.69Zm18.3-19.07-11.69,6.73,7.64-9.08c-4,.47-7.14,1.22-10.21,1.09-3.49-.16-5.78,1.21-5.71,4.71a25.47,25.47,0,0,0,1,7.61c2,5.71,4.32,11.29,6.53,16.92.21.53.53,1,1.07,2.05l2.4-6.57,1.2,0c-4.34,8.14-.58,13.94,4.74,19.72.55-.83,1.08-1.28,1.14-1.78a85.06,85.06,0,0,0,1.06-9.64c.11-5.85-.3-11.71-.11-17.55.13-4.15.9-8.27,1.36-12.41A8.54,8.54,0,0,0,419.54,56.62ZM374.17,36c7.07-.36,8.31-3.28,7.25-9.94-.34-2.17-1.75-3-3.95-2-3.53,1.61-7.11,3.11-10.63,4.74-2.4,1.1-2.61,2.83-.29,4.08A66.66,66.66,0,0,0,374.17,36ZM406,50.39c-.14-1.2.14-2.71-.49-3.55-2-2.71-5-3.71-8.18-4C395.44,50.36,402.27,48.18,406,50.39Zm-218.4,259.7-.31.33c.9,1.72,1.76,3.46,2.72,5.15a11.29,11.29,0,0,0,1.36,1.67c.62-.63,1.73-1.22,1.77-1.89a29.6,29.6,0,0,0-.56-5.15L190.37,312ZM412.51,100.37l.72-.86c-1.2-2.33-2.41-4.66-3.61-7l-1.33.29c.16,2-.05,4.16.64,6C409.25,99.63,411.26,99.86,412.51,100.37ZM202.86,265.46l4.4-.29c-.42-1.31-.82-2.56-1.44-4.53ZM424,59.66c.39,2.22.67,3.79,1,5.81C427.66,62.48,427.56,61.84,424,59.66Zm1-2.74-.2.64L429,58.9l.21-.66ZM188.41,315.14c-2.8,1.13-3.31,2.87-1.87,5.27C187.16,318.66,187.71,317.13,188.41,315.14Zm1.87-5.29.47-.24c-.22-.42-.42-.84-.67-1.25a2.9,2.9,0,0,0-.51.18Zm86.5-97.27.56-.13-.4-1-.31.1ZM228,311a3.79,3.79,0,0,1,.31-.39s.23.09.23.13a2.77,2.77,0,0,1-.11.48ZM213.47,313l-.07-.25c-.06,0-.18,0-.18.06a.74.74,0,0,0,.05.25ZM151.87,43.88c-.06-.05-.12-.16-.18-.16s-.12.11-.18.16l.26.19Z"/><path class="cls-1" d="M453,443.38c-3.67-.75-1.13-3.17-1.33-5.11l-1.93,1.44c-1.8-2.63-.69-4.63,1.34-6.52L453,434.4Z"/><path class="cls-1" d="M332.24,238.43c1.58-5.09,2.86-9.25,4.16-13.41.18-.57.63-1.14.59-1.68-.51-7.41,5.76-10.21,9.95-14.2,4-3.83,13.71.35,14.62,6.19.44,2.82,1.87,3.23,4.17,3.54,4.73.64,6.8,3.34,4.76,6.34-1.33,2-3.59,3.28-5.42,4.9-.79.7-1.55,1.42-2.33,2.14,1,.61,1.95,1.59,3,1.79,5.35.94,10.83,1.28,16.08,2.58,8.7,2.16,12.66,9,15.18,16.9.56,1.74,1,3.51,1.54,5.42a25.88,25.88,0,0,0-4.07,1.74A6.1,6.1,0,0,0,392,263.4c-2.62,7.6-10.28,11.27-18,8.9-5.6-1.71-9.11-5.74-12.62-9.94-4.57-5.47-6.7-11.81-7.39-18.85a8.78,8.78,0,0,0-9.82-7.5c-2.45.33-4.85,1.07-7.28,1.59C335.63,237.85,334.41,238,332.24,238.43Z"/><path class="cls-1" d="M138.26,194.38a25.64,25.64,0,0,0,4.05-.93c.81-.32,2-1.17,2-1.79,0-.93-.67-2.51-1.37-2.71-7.53-2.07-15-4.79-23.07-3.33-.9.16-1.95-.52-2.92-.81a20.85,20.85,0,0,1,1.12-2.15c4.71-7,12.29-7.59,19.63-8.68,4-.6,8.07-.92,12-1.78,1-.21,2.09-2,2.24-3.16a4,4,0,0,0-1.55-3.34,31.25,31.25,0,0,0-6.93-2.48,48.47,48.47,0,0,0-7.54-1.36c-2.19-.2-5-.8-6.49.27-1.8,1.34-3.66,1.68-5.53,2.4a61,61,0,0,0-6.82,3c-.68.37-.94,1.52-1.47,2.44-1.47.23-3.15.45-4.79.78-2.17.43-3.39-.39-3.25-2.6.34-5.36,1.84-10.31,6.1-13.92a44.55,44.55,0,0,1,7-5c3.42-1.92,7-3,11.15-1.88,6.91,1.94,14,3.41,20.87,5.33a17.53,17.53,0,0,1,5.13,3c3.15,2.25,6.22,4.63,9.28,7,2.85,2.2,3.56,4.64,2,7.82a14.8,14.8,0,0,0-1.49,7.72c.35,7.48-1.41,14.37-7.08,19.82-2.76,2.66-6.3,2.91-9.46,2.11-4.34-1.1-8.42-3.24-12.61-4.94Zm-6.71-34c.11.09.23.18.33.28a.86.86,0,0,1-.14.18l-.35-.26ZM118,165.35l0,.17-.14-.11Z"/><path class="cls-1" d="M387.37,308.74c4.44,3.16,8.84,5.83,12.66,9.16,2.06,1.8,3.25,4.67,4.65,7.16,5.09,9,5.94,19.11,7.21,29,.42,3.23-.42,6.72-1.18,10-.71,3.05-2.31,3.26-5.39,3s-6,.7-9.07.8a40.24,40.24,0,0,1-9.45-.37c-5.77-1.2-9.38-5.17-11-10.7a29,29,0,0,1,1-19.88c.53-1.28.82-2.65,1.29-4,2.6-7.39,5.2-14.79,7.86-22.16A10.45,10.45,0,0,1,387.37,308.74Z"/><path class="cls-1" d="M411.45,243.39c-5.07-4.31-10.38-8.31-15.07-12.93a32.75,32.75,0,0,1-9.23-18.36c-.51-3.11.21-3.57,3.41-3.3,2.53.21,5.1-.06,7.64.07a9.38,9.38,0,0,1,2.58,1c2.71,1.06,5.41,2.12,8.13,3.14.54.2,1.29,0,1.7.3a112.76,112.76,0,0,1,9.7,7.35c5.22,4.76,4.7,12-.9,16.46C417,239.06,414.6,240.93,411.45,243.39Z"/><path class="cls-1" d="M440.07,317.45a52.65,52.65,0,0,0-5.56-.4c-2,.06-3.9.46-5.86.67a9.32,9.32,0,0,1-2.3,0c-4.88-.64-9.81-1-14.61-2.08s-9.6-2.72-14.4-4.12l.06-1.54a62.55,62.55,0,0,1,8.12-.94c4,0,4.4-.24,4.86-4.13.38-3.19.65-6.55,5-7.2a3.63,3.63,0,0,0,2.16-1.91c1.24-2.49,2.78-2.21,4.89-1.15a26.55,26.55,0,0,0,5.12,1.52,12.41,12.41,0,0,1,8.93,7.58C438.29,308.05,440,312.21,440.07,317.45Z"/><path class="cls-1" d="M201.66,167.54c-1-.09-2-.15-3-.28-.78-.09-1.55-.27-2.33-.41.27-.82.29-1.93.85-2.4,2.3-2,4.79-3.7,7.17-5.57,4.31-3.38,9.8-2.28,14.59-3.85a1.92,1.92,0,0,1,1.68.29c3,4,6.87,1.49,10.4,1.45h0l4.13,1-3,2-.07.06.12-.07,2.42.42,0,.67-3.62,1.87c2.49.56,5.14,1.09,7.74,1.77.49.14,1.19.93,1.14,1.35a1.82,1.82,0,0,1-1.32,1.2c-6,.09-12,.07-17.94.06a11.82,11.82,0,0,0-1.75-.15c-3.51.55-7,1.18-10.52,1.74-1.4.22-2.84.81-4-.94-.3-.47-1.75-.19-2.67-.25Z"/><path class="cls-1" d="M203,187.25c-1.91-5.69,8.55-11.72,16.27-8.88l-2.79,1c4.27,1.17,8.68,1.95,12.75,3.59,3.9,1.59,8.24,2.72,11.68,6.12-5.62,2.27-8.42-2.3-12.42-3.73-1.66,4.53-5.08,5-9.39,5.53-4.89.56-9.47-.36-14.16-.75-1.61-.14-3.13-1.25-4.7-1.91l.24-.71Zm11.38,1.26c-1.69-1.39,1.35-4.79-2.35-5-.82-.05-2.5,1.48-2.47,2.22C209.66,188.5,212.21,188.15,214.35,188.51Z"/><path class="cls-1" d="M231,156.77l-6.41-.86c2.91-1.13,5.64-3,9.06-1.52,1.58.7,3.25,2.14,5.08.14.16-.18,1.77.74,2.51,1.38a12.32,12.32,0,0,1,1.7,2.37c-.32.63-1.35,1.86-1.08,2.3.46.76,1.7,1.1,2.67,1.49s2.19.72,3.32,1.08c.55-.43,1.68-1.59,1.91-1.44a15.1,15.1,0,0,1,4,3.94c-5.22,0-10.44.8-14.07-3.79-.15-.86-.13-2.86-.57-3-2.7-.67-4.65-4.45-8.08-2.12Z"/><path class="cls-1" d="M267.37,264.59a6.21,6.21,0,0,1,.11,1.86c-.64,2.86-1.37,5.69-2.07,8.53,0,.09,0,.21,0,.29-1,1.64-2,3.26-3,4.92-.85,1.48-1.61,3-2.41,4.52l-.71-.22c.06-.81-.21-1.89.21-2.4,2.48-3,2.74-6.73,3.88-10.18.43-1.31,1.56-2.38,2.25-3.63s1.2-2.49,1.79-3.74Z"/><path class="cls-1" d="M195,305.27a17,17,0,0,0,1-2.58c.32-1.51.46-3.06.78-5.27,4.87,6,5.82,10.16,2.66,12.23l-3.57-2.58-.63.62c-.06-.83-.13-1.66-.2-2.49Zm3.08-2.52.2.09-.24,0-.07-1.5-.49.1Z"/><path class="cls-1" d="M248.33,291.4l-.33-4.51c2.28,2.59,3.43.2,4.94-.78l5.14,3-1.32,3.56L254,289.2l-3.24,1.38-.27,2.93c-.91-.88-1.57-1.5-2.23-2.13Z"/><path class="cls-1" d="M413.14,251.09l1.21,17.41-.65.13c-.44-2.72-.83-5.45-1.33-8.15-.29-1.64-.4-3.46-1.22-4.82C409.86,253.51,410.51,252.25,413.14,251.09Z"/><path class="cls-1" d="M291.69,254.48c-2.62-4.47-2.35-14.41,0-16.55Z"/><path class="cls-1" d="M291.21,255.7c3.17,2.6,2.14,5.49,1.35,8.54C288,258.94,288.15,260.69,291.21,255.7Z"/><path class="cls-1" d="M213.48,300.71c.58,1.27,1.68,2.57,1.61,3.81-.13,2.33-2.11.65-3.22,1l-1.29.37-1.6-3.08C210.9,302.86,213.73,304.61,213.48,300.71Z"/><path class="cls-1" d="M326.14,172.77c-2.66-1.47-1.89-3.17-1.05-5C327.13,169,327.16,169.15,326.14,172.77Z"/><path class="cls-1" d="M244.44,273.1c3,.53,3.22,2,1.1,6.08C245.17,277.12,244.83,275.26,244.44,273.1Z"/><path class="cls-1" d="M268.08,256.67c-1.59,0-3.37.22-2.67-2.65l1.18.84c.29-.82.58-1.62.86-2.43l.59.07v4.21Z"/><path class="cls-1" d="M267.42,264.54l-3.26,1.63c-.67-2.37,1.15-3.06,3-4.4.1,1.21.17,2,.24,2.82Z"/><path class="cls-1" d="M220.19,306.3c-.07-.87-.14-1.74-.25-3.19l1.5,1.74v-2.67l1.1,0v4.28l-2.4-.2Z"/><path class="cls-1" d="M206.28,298.68c1.64.47,3.91.13,4.82,3.25Z"/><path class="cls-1" d="M176.52,338.65,172.88,341l.05,0a15.72,15.72,0,0,1,1.72-2.75c.22-.23,1.2.24,1.84.4Z"/><path class="cls-1" d="M172.88,341l1,1.78-2.56-.52,1.64-1.22Z"/><path class="cls-1" d="M421.86,47.85l1,.65-.34.36-.66-1Z"/><path class="cls-1" d="M191.51,301.61l.07-1.44.33.09c-.15.44-.3.88-.44,1.32Z"/><path class="cls-1" d="M247,291.05a2.62,2.62,0,0,1-.77.28c-.12,0-.36-.26-.34-.35a1.76,1.76,0,0,1,.37-.56Z"/><path class="cls-1" d="M204.91,309.72a1.78,1.78,0,0,1-.14-.51c0-.07.17-.14.27-.21,0,.09.11.18.09.26A4.69,4.69,0,0,1,204.91,309.72Z"/><path class="cls-1" d="M248.29,291.38v1.38l-.61-.2.65-1.16Z"/><path class="cls-1" d="M221.55,178.67l0-.17.2.18Z"/><path class="cls-1" d="M169,318l-.56.71a2.47,2.47,0,0,1-.42-.63c0-.12.2-.45.27-.44A2.94,2.94,0,0,1,169,318Z"/><path class="cls-1" d="M176.49,338.7l.8.13-.24.34c-.17-.18-.35-.35-.53-.52Z"/><path class="cls-1" d="M268,256.71l.4.25-.25.2-.11-.49Z"/><path class="cls-1" d="M234.55,317.94l.06.18a1,1,0,0,1-.23.05s0-.11-.06-.17Z"/><path class="cls-1" d="M221.58,307.61l.3.35a2.76,2.76,0,0,1-.47.2s-.19-.19-.17-.21A3.64,3.64,0,0,1,221.58,307.61Z"/><path class="cls-1" d="M163.35,312.93l.27-.39-.26.41Z"/><path class="cls-1" d="M244.12,310.56l.06.15-.05-.11Z"/><polygon class="cls-1" points="204.38 310.71 204.42 310.88 204.28 310.86 204.38 310.71"/><polygon class="cls-1" points="165.43 313.37 165.36 313.16 165.55 313.19 165.43 313.37"/><path class="cls-1" d="M225,307.25a1.83,1.83,0,0,1-.41.18c-.05,0-.12-.12-.19-.18a1.59,1.59,0,0,1,.4-.18S224.93,307.18,225,307.25Z"/><path class="cls-1" d="M184.19,307.25l-.2.18c-.06-.07-.17-.14-.16-.21s.12-.12.19-.18Z"/><path class="cls-1" d="M231,304.51h-.41l0-.25.32.33Z"/><polygon class="cls-1" points="207.87 301.83 208.04 301.79 208.01 301.93 207.87 301.83"/><path class="cls-1" d="M235.23,293.74l.7.2h0l-.62-.23Z"/><polygon class="cls-1" points="233.84 294.13 233.67 294.19 233.69 294.03 233.84 294.13"/><polygon class="cls-1" points="235.27 293.7 235.11 293.72 235.22 293.75 235.27 293.7"/><polygon class="cls-1" points="191.45 285.42 191.58 285.52 191.47 285.45 191.45 285.42"/><path class="cls-1" d="M223.64,275.49l-.1.21-.31-.21.2-.21Z"/><path class="cls-1" d="M146,46.06l0-.16L146,46Z"/><path class="cls-1" d="M264.79,252.68c0,.06.14.12.14.17s-.1.11-.16.16-.14-.12-.14-.17S264.73,252.73,264.79,252.68Z"/><polygon class="cls-1" points="110.4 249.98 110.33 249.78 110.51 249.8 110.4 249.98"/><polygon class="cls-1" points="199.11 169.02 198.93 169.09 198.95 168.92 199.11 169.02"/><path class="cls-1" d="M201.62,167.5l-.06.27c0-.08.07-.16.1-.23Z"/><polygon class="cls-1" points="254.55 166.14 254.5 165.96 254.66 165.99 254.55 166.14"/><polygon class="cls-1" points="169.67 343.08 169.72 343.24 169.57 343.21 169.67 343.08"/><path class="cls-1" d="M408.27,436.68c0-2.16-.12-3.9,0-5.62.4-4.4-1.8-9.05,1.64-13.34l4.53,1.24-2.45,3.4c-.62,1.38,2.38,3.66-1.8,4.44C414,433,412.79,439.41,411.6,446c-.46-1.95-1.47-4-1.24-5.84C410.63,437.92,410.12,437,408.27,436.68Z"/><path class="cls-1" d="M192.47,411.32c-4.72,6.42-5,7.64-1.75,9.44a6.42,6.42,0,0,1-1.61-.38c-1.65-.87-2-.67-2.71,1.07a2.76,2.76,0,0,1-1.8,1.41,54.9,54.9,0,0,1-5.57.31Z"/><path class="cls-1" d="M418.26,463.71c-2.24,2.68,1.37,4.06,1.46,6.77l-1.79-2.16-1,0-.48,4.41v0l-2,1.88-1.54-1.92,0,0a22.32,22.32,0,0,1,1.69-3.86c1.87-2.76,1.15-5.31-.56-7.89l.64-.37c.69.77,1.34,1.59,2.1,2.3a7,7,0,0,0,1.5.84Z"/><path class="cls-1" d="M258.5,320.12a18.05,18.05,0,0,1,2.91,2.14c1.68,1.85,3.19,3.86,4.76,5.81L263,330c-.22-1.32-.12-2.94-.8-4.09s-2.1-1.54-3.64-2.58v-3.24Z"/><path class="cls-1" d="M158.33,468.4c1.09,2.17,1.64,3.83-.71,5.65-.88.68-.43,3.11-1.14,4.69.1-1.09.19-2.17.31-3.49l-3.36.8c.22-1.66.39-3,.55-4.27l.84.12-.3,2c2.25-.11,3.28-1.3,3.35-3.14,0-.41-1.3-.86-2.07-1.34Z"/><path class="cls-1" d="M396.1,406.94c1.21.38,2.42.78,3.63,1.14.42.12.89.11,1.31.23,1.07.29,2.55.3,3.07,1,.66.89.54,2.37.76,3.59l-.91.22-7.87-6.22Z"/><path class="cls-1" d="M405.72,466.66c-.17.9-.06,2-.54,2.68a69.16,69.16,0,0,1-7.8,9.66l7.72-12.31Z"/><path class="cls-1" d="M279.76,365.89a45.33,45.33,0,0,0-1-4.84c-1-3.07,1.8-3.15,3.8-4.87C281.45,360,280.54,363.18,279.76,365.89Z"/><path class="cls-1" d="M412.88,472.69c-.7,1.73-1.32,3.5-2.14,5.17a18.05,18.05,0,0,1-1.94,2.7l-.95-.53,1.66-5.32-.88-1.51,4.29-.47Z"/><path class="cls-1" d="M425,433.64a.36.36,0,0,0,.49.2l0,0,.64.63,0,0a16.7,16.7,0,0,0,1.12,2.94,10.6,10.6,0,0,0,1.89,1.83l0,0-3-.61.05-.24,0,.26c-4-.91-1.09-3.25-1-5Z"/><path class="cls-1" d="M397.92,454.15l-1.78.47.45-5.35c.76,1.65,3,2.9,1.31,4.89l-.08-.15Z"/><path class="cls-1" d="M270.2,354.6c-.26-1.76-.52-3.53-.81-5.48l1.88-.94c-.17,2.2-.33,4.3-.48,6.4Z"/><path class="cls-1" d="M423.15,420.48l4.24.21v2.68Z"/><path class="cls-1" d="M394.16,412.15c3.65,4.48,3.65,4.48,1.31,5.25Z"/><path class="cls-1" d="M397.31,429.62c-.39-1.06-.78-2.11-1.25-3.35l2.43-2.66.71.28-1.89,5.72Z"/><path class="cls-1" d="M175.76,440.59l3.85.72-.56,2-3.84-2.16Z"/><path class="cls-1" d="M389,397.45l1.74,2.33-.27.55-3.09-1Z"/><path class="cls-1" d="M257.32,359l-1.46-2.31,1.07-.38c.12.91.23,1.82.35,2.73Z"/><path class="cls-1" d="M442.75,424.25l2.49,1.47-.7.81-1.74-2.34Z"/><path class="cls-1" d="M258.16,351.56,258,353l-.48,0,.07-1.54Z"/><path class="cls-1" d="M257.32,360.84V359l0,0,1.85.63-.05,0-1.8,1.2Z"/><path class="cls-1" d="M411.38,447.29a3.34,3.34,0,0,1,0,.85c0,.11-.3.15-.47.22a2.46,2.46,0,0,1-.1-.75C410.8,447.51,411.09,447.44,411.38,447.29Z"/><path class="cls-1" d="M391.84,397.27l-.09.14,0-.35Z"/><path class="cls-1" d="M397.31,429.61l-.53.87-.21-.19.74-.67Z"/><path class="cls-1" d="M423.7,430.18,422.44,429v0l1.21,1.16Z"/><path class="cls-1" d="M178,424.24l-.16-.15.28-.19c0,.07.06.16,0,.22S178,424.21,178,424.24Z"/><path class="cls-1" d="M447,427.12l-.89-.56.38-.31.47.92Z"/><path class="cls-1" d="M425,433.6l-.14,0c-.29,0-.1,0,.1,0Z"/><path class="cls-1" d="M260.27,311.74l.17.1-.13-.13Z"/><polygon class="cls-1" points="396.09 406.91 396.05 406.82 396.11 406.94 396.09 406.91"/><path class="cls-1" d="M429.11,425.38l0,0Z"/><path class="cls-1" d="M447,427.17l0-.05Z"/><polygon class="cls-1" points="422.44 429.03 422.38 428.96 422.44 429.06 422.44 429.03"/><polygon class="cls-1" points="258.53 320.09 258.34 320.01 258.5 320.13 258.53 320.09"/><polygon class="cls-1" points="416.44 472.7 416.57 472.81 416.45 472.73 416.44 472.7"/><path class="cls-1" d="M187.64,310.09l2.73,1.9,2.25-1.79a29.6,29.6,0,0,1,.56,5.15c0,.67-1.15,1.26-1.77,1.89a11.29,11.29,0,0,1-1.36-1.67c-1-1.69-1.82-3.43-2.72-5.15Z"/><path class="cls-1" d="M412.51,100.37c-1.25-.51-3.26-.74-3.58-1.6-.69-1.81-.48-4-.64-6l1.33-.29c1.2,2.34,2.41,4.67,3.61,7Z"/><path class="cls-1" d="M202.86,265.46l3-4.82c.62,2,1,3.22,1.44,4.53Z"/><path class="cls-1" d="M424,59.66c3.56,2.18,3.66,2.82,1,5.81C424.67,63.45,424.39,61.88,424,59.66Z"/><path class="cls-1" d="M425,56.92l4.18,1.32-.21.66-4.17-1.34Z"/><path class="cls-1" d="M188.41,315.14c-.7,2-1.25,3.52-1.87,5.27C185.1,318,185.61,316.27,188.41,315.14Z"/><path class="cls-1" d="M190.28,309.85l-.71-1.31a2.9,2.9,0,0,1,.51-.18c.25.41.45.83.67,1.25Z"/><path class="cls-1" d="M276.78,212.58l-.15-1.05.31-.1.4,1Z"/><path class="cls-1" d="M233.38,310.63l.24-.53c-.1.16-.19.32-.28.48Z"/><path class="cls-1" d="M228,311l.43.22a2.77,2.77,0,0,0,.11-.48s-.21-.15-.23-.13A3.79,3.79,0,0,0,228,311Z"/><path class="cls-1" d="M155.58,309.35l-.6.36-.07-.24.7-.08Z"/><path class="cls-1" d="M213.47,313l-.2.06a.74.74,0,0,1-.05-.25s.12,0,.18-.06Z"/><polygon class="cls-1" points="225.45 315.43 225.63 315.4 225.51 315.47 225.45 315.43"/><path class="cls-1" d="M151.87,43.88l-.1.19-.26-.19c.06-.05.12-.16.18-.16S151.81,43.83,151.87,43.88Z"/><path class="cls-1" d="M188.48,284.81l-.24-.07.24-.21c0,.08,0,.16.05.24Z"/><path class="cls-1" d="M176.33,35.56l.27,1-1-.07Z"/><path class="cls-1" d="M186.59,35l-.76.61Z"/><path class="cls-1" d="M429,439.17a10.6,10.6,0,0,1-1.89-1.83A16.7,16.7,0,0,1,426,434.4l7.89-5.84,1.2,1.51-.45.45a4.85,4.85,0,0,0-.91.51c1.05,3.08-1.67,3.44-3,4.76l4.14,4.31,5-7.07,3.06.52L434,443Z"/><path class="cls-1" d="M448.54,439.59c2.86,3.2,0,6,.49,8.74l-1.19-.07c.23-1.72.51-3.45.68-5.18C448.62,442.16,448.54,441.23,448.54,439.59Z"/><path class="cls-1" d="M437.26,432l.74,1.42-.53.33c-.29-.45-.59-.89-.89-1.33Z"/><path class="cls-1" d="M435.12,430.07l1,.84-.5.54-1-.93Z"/><path class="cls-1" d="M443.26,490.58l.82-1.09.5.59-1.13.7Z"/><path class="cls-1" d="M432.75,425.11l-.06.19-.13-.26Z"/><path class="cls-1" d="M435.37,427.76l-.2-.11.21-.28.19.2Z"/><path class="cls-1" d="M444,430.82l.24.25c-.06,0-.14,0-.16-.06a1.42,1.42,0,0,1-.05-.22Z"/><polygon class="cls-1" points="443.71 432.21 443.78 432.43 443.58 432.4 443.71 432.21"/><path class="cls-1" d="M426.05,434.42l-.64-.63.64-.06Z"/><path class="cls-1" d="M446.39,454.16l.08-.25-.1.23Z"/><path class="cls-1" d="M443.22,485.71l.58-.25-.2.62Z"/><path class="cls-1" d="M427.58,457.5l.11,1.17-.73-.77Z"/><path class="cls-1" d="M131.55,160.42l-.16.2.35.26a.86.86,0,0,0,.14-.18C131.78,160.6,131.66,160.51,131.55,160.42Z"/><polygon class="cls-1" points="117.98 165.35 117.81 165.41 117.95 165.52 117.98 165.35"/><path class="cls-1" d="M232.11,159.76l-.12.07.07-.06Z"/><path class="cls-1" d="M214.35,188.51c-2.14-.36-4.69,0-4.82-2.82,0-.74,1.65-2.27,2.47-2.22C215.7,183.72,212.66,187.12,214.35,188.51Z"/><path class="cls-1" d="M198.06,302.75l-.6-1.35.49-.1.07,1.5Z"/><path class="cls-1" d="M198,302.8l.24,0-.2-.09Z"/><path class="cls-1" d="M257.28,360.79l1.8-1.2c1.84-.25,2.86.1,2.49,2.4-.13.82.87,1.84,1.38,2.75a12.12,12.12,0,0,1,1.51,3.4c2.27,1.54,2.42,2.29,1.11,7.93a6.85,6.85,0,0,1-4.1-7.85c-1.76,2.23-3.27,1.1-4.76-.24l0-.05C254,365.29,256.46,363.12,257.28,360.79Z"/><path class="cls-1" d="M210.61,408.66l-1.26-3.29L217,402a1,1,0,0,1,.28.23c-.51,1.11-1,2.21-1.64,3.52l1.9.36.51.47-3.17,5.11-.66-.08-.29-3.26-3.27.35Z"/><path class="cls-1" d="M232.48,388c2.05-.32,1.92-3.9,4.51-2.17a4,4,0,0,1,.86,2.82C236.29,389.54,234.52,390.46,232.48,388Z"/><path class="cls-1" d="M213.21,413.31c.24,2.87,4.43,3.77,3.73,7.38C213.31,419.43,212.53,418,213.21,413.31Z"/><path class="cls-1" d="M241.9,382.39c.54-1.25.94-2.19,1.35-3.13.61.85,1.73,1.71,1.71,2.54,0,1.17-.93,2.31-1.45,3.46Z"/><path class="cls-1" d="M218.59,410.79c-.24,1.75,2.15,3.79-.93,4.68-.5.15-1.87-1.05-2-1.82C215.16,411.77,216.07,410.62,218.59,410.79Z"/><path class="cls-1" d="M244.1,364.21l2.43,5.22c-3.72-.54-2.94-3-3.56-4.56Z"/><path class="cls-1" d="M210.65,408.69a8.11,8.11,0,0,1,1.4,2.17c.17.57-.28,1.33-.91,1.93.56-1.53-3.68-2.51-.53-4.13Z"/><path class="cls-1" d="M244,373.12c-.57-1.14-1.11-1.72-1-2.17s.77-.91,1.19-1.36c.43.43,1.21.87,1.19,1.29S244.69,372,244,373.12Z"/><path class="cls-1" d="M257.82,375.75l-.56-1.13,0,0,2.4-.11-1.8,1.32Z"/><path class="cls-1" d="M217.53,406.1l1.5-2.28,1,.78-2,2Z"/><path class="cls-1" d="M256.71,368l-.27,1.73-1-.52,1.19-1.26Z"/><path class="cls-1" d="M207.71,405.28c.12.44.23.89.32,1.34,0,0-.43.16-.45.12-.23-.39-.41-.8-.61-1.21Z"/><path class="cls-1" d="M218.18,423.31l-1.29-1.59.85-.55.9,1.74Z"/><path class="cls-1" d="M217,402l.71-1.06.57.48-1,.81A1,1,0,0,0,217,402Z"/><path class="cls-1" d="M261.82,381.58l.74-1.06.57.53-.93.89A3.24,3.24,0,0,0,261.82,381.58Z"/><path class="cls-1" d="M257.26,374.62l-.73-.23.15-.25.61.44Z"/><path class="cls-1" d="M209,407.73l.19-.18a1.62,1.62,0,0,1,.17.35s-.11.12-.17.18Z"/><path class="cls-1" d="M218.45,426.67l-.24.42.18-.47Z"/><path class="cls-1" d="M242.19,373.57c0,.07,0,.16,0,.2s-.12.07-.19.1v-.41Z"/><path class="cls-1" d="M426.05,438.61l0-.26-.05.24Z"/><polygon class="cls-1" points="397.92 454.14 397.82 454.01 397.9 454.16 397.92 454.14"/><path class="cls-1" d="M132.24,274l.74-.42.11.24-.84.2Z"/></g></g></svg>